# xmcd CD database file
#
# Track frame offsets:
#	182
#	19840
#	36445
#	54565
#	77845
#	96320
#	116070
#	139137
#	157240
#	174532
#
# Disc length: 2550 seconds
#
# Revision: 13
# Processed by: cddbd v1.5.2PL0 Copyright (c) Steve Scherf et al.
# Submitted via: CDex 1.70beta2
#
DISCID=8c09f40a
DTITLE=張學友 - 衹願一生愛一人
DYEAR=1989
DGENRE=Pop
TTITLE0=祇願一生愛一人
TTITLE1=花花公子
TTITLE2=忘情冷雨夜
TTITLE3=夕陽醉了
TTITLE4=歡場
TTITLE5=親親
TTITLE6=你沒有錯
TTITLE7=迷失的方向
TTITLE8=一往情深
TTITLE9=信念
EXTD=YEAR: 1989
EXTT0=
EXTT1=
EXTT2=
EXTT3=
EXTT4=
EXTT5=
EXTT6=
EXTT7=
EXTT8=
EXTT9=
PLAYORDER=
